<svg aria-hidden="true" style="position: absolute; width: 0; height: 0; overflow: hidden;" version="1.1" xmlns="http://www.w3.org/2000/svg" xmlns:xlink="http://www.w3.org/1999/xlink">
<defs>
<symbol id="icon-antenna" viewBox="0 0 70 70">
<path d="M67.3162 48.3385L48.8467 29.7337L50.8966 19.6373C51.4255 19.8438 51.9878 19.9517 52.5556 19.9558H52.5696C55.1776 19.9866 57.3169 17.8974 57.3478 15.2893C57.3787 12.6812 55.2894 10.542 52.6813 10.5111C50.0732 10.4803 47.934 12.5695 47.903 15.1776C47.8965 15.7357 47.9888 16.2905 48.1759 16.8163L37.3259 18.1405L19.6276 0.35C19.4104 0.128479 19.1141 0.00247917 18.8039 0C18.4976 0.00160417 18.2044 0.123521 17.9872 0.3395L14.6786 3.6295C14.2231 4.08508 14.2231 4.82358 14.6786 5.27917L16.4589 7.08517C9.56156 19.7681 11.8018 35.4741 21.9702 45.7228C22.0636 45.8121 22.1718 45.8843 22.2899 45.9363C22.2164 46.3311 22.178 46.7317 22.1756 47.1333V60.6667H8.17556C4.95556 60.6705 2.34602 63.28 2.34222 66.5V68.8333C2.34222 69.4776 2.8646 70 3.50889 70H57.1756C57.8199 70 58.3422 69.4776 58.3422 68.8333V66.5C58.3384 63.28 55.7289 60.6705 52.5089 60.6667H38.5089V54.6688C40.7021 55.1288 42.9367 55.3633 45.1776 55.3688C50.5547 55.363 55.8463 54.0225 60.5776 51.4675L62.3672 53.2677C62.5844 53.4892 62.8807 53.6152 63.1909 53.6177C63.4971 53.6161 63.7904 53.4941 64.0076 53.2782L67.3162 49.9882C67.7717 49.5326 67.7717 48.7941 67.3162 48.3385ZM50.9246 13.6348C51.8382 12.726 53.3156 12.7301 54.2243 13.6437C55.1332 14.5574 55.1291 16.0348 54.2154 16.9435C53.7781 17.3785 53.1863 17.6226 52.5694 17.6225H52.5624C51.2738 17.6158 50.2345 16.5658 50.2412 15.2771C50.2444 14.6602 50.4917 14.0699 50.9291 13.6348H50.9246ZM48.1782 21.301L46.8692 27.7445L44.2979 25.158L48.1782 21.301ZM46.8529 19.3282L42.6529 23.5037L39.4037 20.237L46.8529 19.3282ZM52.5089 63C54.4419 63 56.0089 64.567 56.0089 66.5V67.6667H4.67556V66.5C4.67556 64.567 6.24254 63 8.17556 63H52.5089ZM36.1756 58.3333V60.6667H24.5089V58.3333H36.1756ZM24.5089 56V47.1333C24.5089 44.303 27.1257 42 30.3422 42C33.5587 42 36.1756 44.303 36.1756 47.1333V56H24.5089ZM38.5089 52.29V47.1333C38.5089 43.0162 34.8456 39.6667 30.3422 39.6667C27.4305 39.622 24.7078 41.1041 23.1649 43.5738C14.2886 34.2249 12.2898 20.2875 18.1805 8.82073L58.8719 49.7455C52.5885 52.9419 45.3857 53.8418 38.5089 52.29ZM63.2037 50.7943L61.5599 49.1412L18.7922 6.11567L17.1414 4.46133L18.7922 2.81633L36.1499 20.272C36.1581 20.272 36.1627 20.2872 36.1709 20.293L64.8592 49.1493L63.2037 50.7943Z" fill="#212121"/>
<path d="M30.3527 44.3333H30.3422C28.4092 44.3304 26.8399 45.895 26.837 47.8281C26.8341 49.7611 28.3987 51.3304 30.3317 51.3333H30.3422C32.2752 51.3362 33.8446 49.7716 33.8475 47.8386C33.8504 45.9055 32.2857 44.3362 30.3527 44.3333ZM31.1694 48.6605C30.9498 48.8789 30.6521 49.0012 30.3422 49C29.6979 48.9966 29.1783 48.4716 29.1817 47.8273C29.1833 47.5189 29.307 47.2237 29.5256 47.0062C29.7427 46.7902 30.036 46.6683 30.3422 46.6667C30.9865 46.67 31.5061 47.195 31.5028 47.8393C31.5012 48.1477 31.3775 48.4429 31.1589 48.6605H31.1694Z" fill="#2196F3"/>
</symbol>
<symbol id="icon-astronaut" viewBox="0 0 70 70">
<path d="M69.9433 9.8964C69.8056 9.47516 69.4416 9.16727 69.0018 9.10301L64.8228 8.49515L62.9526 4.70812C62.5606 3.91008 61.2527 3.91008 60.8608 4.70812L58.9906 8.49515L54.8114 9.10315C54.3716 9.16727 54.0076 9.47421 53.8687 9.89654C53.7323 10.3189 53.8453 10.7832 54.1639 11.0924L57.1891 14.0407L56.4752 18.2034C56.4005 18.6409 56.5802 19.0831 56.9384 19.3445C57.3012 19.6082 57.7748 19.6408 58.168 19.4331L61.9061 17.4672L65.6442 19.4331C65.8146 19.5229 66.0024 19.5672 66.1879 19.5672C66.4294 19.5672 66.671 19.4926 66.874 19.3444C67.2333 19.0831 67.413 18.6408 67.3372 18.2033L66.6233 14.0405L69.6485 11.0923C69.9654 10.7819 70.0798 10.3187 69.9433 9.8964ZM64.5556 12.7991C64.2815 13.0663 64.1555 13.4536 64.2208 13.8316L64.6385 16.2688L62.4499 15.1185C62.2795 15.0286 62.0929 14.9843 61.9061 14.9843C61.7195 14.9843 61.534 15.0286 61.3624 15.1185L59.1736 16.2688L59.5913 13.8316C59.6567 13.4536 59.5306 13.0675 59.2565 12.7991L57.4843 11.0725L59.932 10.7166C60.3124 10.6618 60.6402 10.4226 60.8106 10.0784L61.9049 7.86172L62.9992 10.0784C63.1696 10.4225 63.4974 10.6618 63.8778 10.7166L66.3255 11.0725L64.5556 12.7991Z" fill="#2196F3"/>
<path d="M57.167 44.8923H54.8336V47.2257H57.167V44.8923Z" fill="#2196F3"/>
<path d="M57.167 49.5591H54.8336V51.8925H57.167V49.5591Z" fill="#2196F3"/>
<path d="M59.5004 47.2257H57.167V49.5591H59.5004V47.2257Z" fill="#2196F3"/>
<path d="M54.8337 47.2257H52.5003V49.5591H54.8337V47.2257Z" fill="#2196F3"/>
<path d="M49.0002 57.7259H46.6668V60.0593H49.0002V57.7259Z" fill="#2196F3"/>
<path d="M49.0002 62.3926H46.6668V64.726H49.0002V62.3926Z" fill="#2196F3"/>
<path d="M51.3337 60.0593H49.0002V62.3927H51.3337V60.0593Z" fill="#2196F3"/>
<path d="M46.6668 60.0593H44.3334V62.3927H46.6668V60.0593Z" fill="#2196F3"/>
<path d="M35 53.0592H32.6666V55.3926H35V53.0592Z" fill="#2196F3"/>
<path d="M35 57.7259H32.6666V60.0593H35V57.7259Z" fill="#2196F3"/>
<path d="M37.3334 55.3925H35V57.7259H37.3334V55.3925Z" fill="#2196F3"/>
<path d="M32.6666 55.3925H30.3332V57.7259H32.6666V55.3925Z" fill="#2196F3"/>
<path d="M12.833 13.3918H10.4996V15.7252H12.833V13.3918Z" fill="#2196F3"/>
<path d="M12.833 18.0587H10.4996V20.3921H12.833V18.0587Z" fill="#2196F3"/>
<path d="M15.1663 15.7253H12.8329V18.0587H15.1663V15.7253Z" fill="#2196F3"/>
<path d="M10.4996 15.7253H8.1662V18.0587H10.4996V15.7253Z" fill="#2196F3"/>
<path d="M54.0635 30.9738C53.4348 30.1256 52.5119 29.5797 51.4642 29.4326C50.4119 29.2833 49.3735 29.5597 48.5335 30.2026L45.7952 32.3014L45.794 32.3026L41.6429 35.4025L38.6725 34.2195C43.9692 31.843 47.6712 26.545 47.6712 20.3942C47.6712 12.0314 40.8402 5.22739 32.4436 5.22739C24.047 5.22739 17.2162 12.0314 17.2162 20.3942C17.2162 23.4253 18.1226 26.244 19.6662 28.6158L13.6204 28.5633C13.6169 28.5633 13.6134 28.5633 13.6099 28.5633C13.5912 28.5633 13.5761 28.5726 13.5586 28.5738C13.4431 28.5785 13.3299 28.6019 13.2191 28.6415C13.1911 28.652 13.162 28.6579 13.1352 28.6706C13.1212 28.6765 13.1072 28.6776 13.0932 28.6846L6.02078 32.1764C6.01955 32.1764 6.01846 32.1764 6.01846 32.1775L1.87663 34.1693C1.8311 34.1891 1.78448 34.2159 1.73895 34.2463C0.0880496 35.3452 -0.474284 37.5036 0.429989 39.2676C0.911793 40.2056 1.73198 40.8964 2.74003 41.2125C3.12859 41.3337 3.52521 41.3933 3.91952 41.3933C4.55308 41.3933 5.18077 41.2382 5.75582 40.9314L8.79157 39.3167L13.7441 36.7593L16.7122 36.7418L4.80848 48.5884C4.80738 48.5896 4.80615 48.5896 4.80492 48.5907L1.8765 51.5074C1.18469 52.1958 0.80433 53.1092 0.80433 54.0835C0.80433 55.0565 1.18469 55.9723 1.8765 56.6619C2.58703 57.3689 3.52152 57.7236 4.45601 57.7236C5.39173 57.7236 6.32498 57.3689 7.03785 56.6619L9.91254 53.7988L13.7206 50.9556L15.6912 52.9179L11.8376 56.7552C11.8365 56.7564 11.8352 56.7564 11.834 56.7575L8.90559 59.6741C8.21378 60.3625 7.83343 61.276 7.83343 62.2502C7.83343 63.2233 8.21378 64.139 8.90559 64.8287C9.61613 65.5356 10.5518 65.8903 11.4863 65.8903C12.4208 65.8903 13.3565 65.5356 14.0682 64.8287L16.9977 61.912L21.6842 57.2453C21.6854 57.2441 21.6854 57.243 21.6865 57.2417L23.8951 55.0542L23.8869 55.046C23.9009 55.0321 23.9207 55.0273 23.9348 55.0122L35.2353 42.6349L42.8281 43.7153C42.8829 43.7235 42.9377 43.7269 42.9926 43.7269C43.1338 43.7269 43.2703 43.6931 43.4021 43.6429C43.4406 43.629 43.4744 43.6103 43.5106 43.5917C43.5526 43.5706 43.5969 43.559 43.6367 43.5322L50.6659 38.8655C50.6916 38.848 50.7056 38.82 50.73 38.8014C50.758 38.7792 50.7931 38.7699 50.8186 38.7453L53.5999 36.1401C55.0471 34.7841 55.2466 32.5628 54.0635 30.9738ZM4.66027 38.8722C4.28114 39.0752 3.85061 39.116 3.43881 38.9854C3.03042 38.8583 2.69915 38.5793 2.50541 38.2025C2.15308 37.5165 2.35721 36.6811 2.97436 36.2297L5.84796 34.8471L6.53977 36.869L6.8303 37.7183L4.66027 38.8722ZM12.3102 34.8741L8.92336 36.6241L8.36459 34.9907L7.96331 33.817L12.3968 31.6282L12.3102 34.8741ZM45.3402 20.3919C45.3402 22.4009 44.8607 24.2957 44.03 25.9908L34.8832 21.8362C34.7875 20.5821 34.1366 19.4842 33.1589 18.8005L36.3615 8.16853C41.5626 9.82298 45.3402 14.6752 45.3402 20.3919ZM19.5519 20.3919C19.5519 13.3159 25.3363 7.55834 32.4461 7.55834C32.9991 7.55834 33.5404 7.60496 34.0759 7.67264L30.9434 18.0714C30.9014 18.0701 30.8617 18.0585 30.8185 18.0585C28.5598 18.0585 26.7222 19.8902 26.7222 22.1419C26.7222 24.3936 28.5598 26.2254 30.8185 26.2254C32.3375 26.2254 33.65 25.3866 34.3582 24.1591L42.8073 27.9976C40.4564 31.1616 36.6938 33.2255 32.4459 33.2255C25.3363 33.2255 19.5519 27.4679 19.5519 20.3919ZM32.5814 22.1419C32.5814 23.1068 31.7903 23.892 30.8185 23.892C29.8467 23.892 29.0557 23.1068 29.0557 22.1419C29.0557 21.1771 29.8467 20.3919 30.8185 20.3919C31.7903 20.3919 32.5814 21.1771 32.5814 22.1419ZM5.39186 55.0075C4.87506 55.5196 4.03846 55.5185 3.52289 55.0087C3.27433 54.7601 3.13788 54.4324 3.13788 54.0835C3.13788 53.7358 3.27433 53.408 3.52289 53.1619L5.62743 51.0652L7.48944 52.9192L5.39186 55.0075ZM12.4222 63.1743C11.9054 63.6865 11.0677 63.6877 10.552 63.1756C10.3034 62.927 10.167 62.5993 10.167 62.2504C10.167 61.9027 10.3034 61.5748 10.552 61.3287L12.6579 59.231L13.5388 60.1073L14.5211 61.085L12.4222 63.1743ZM20.0384 55.5862C20.0371 55.5873 20.036 55.5873 20.0348 55.5885L16.1742 59.4386L15.2933 58.5623L14.311 57.5846L18.168 53.7451C18.168 53.7451 18.168 53.7451 18.168 53.744C18.1693 53.7428 18.1703 53.7428 18.1716 53.7417C18.2591 53.6542 18.3139 53.5492 18.3676 53.4454C18.3828 53.4151 18.4119 53.3894 18.4248 53.3579C18.461 53.2681 18.4668 53.1713 18.4808 53.0767C18.4878 53.0229 18.5112 52.9729 18.5112 52.9179C18.5112 52.8397 18.4832 52.764 18.4669 52.6869C18.4529 52.6169 18.4529 52.5457 18.426 52.4781C18.3817 52.3685 18.3058 52.2717 18.2265 52.1771C18.2044 52.1514 18.1962 52.1187 18.1717 52.0942C18.1717 52.0942 18.1717 52.0942 18.1705 52.0942C18.1693 52.0931 18.1693 52.0906 18.1682 52.0896L14.6529 48.5895C14.6156 48.5522 14.5678 48.537 14.5258 48.5056C14.464 48.4577 14.4045 48.4134 14.3356 48.3795C14.2692 48.3468 14.2015 48.327 14.1315 48.3083C14.0568 48.2872 13.9845 48.2709 13.9063 48.2651C13.8351 48.2604 13.7686 48.2674 13.6975 48.2756C13.6193 48.2849 13.5459 48.2954 13.47 48.3199C13.3965 48.3433 13.3312 48.3794 13.2636 48.4179C13.2204 48.4424 13.1714 48.4506 13.1305 48.4809L9.25136 51.3767L7.2808 49.4143L12.5286 44.1946L22.0674 53.576L20.0384 55.5862ZM34.9545 40.2372C34.9207 40.2326 34.8891 40.2454 34.8554 40.2431C34.7702 40.2385 34.6886 40.2443 34.6034 40.2583C34.5369 40.2699 34.4739 40.2828 34.4109 40.3049C34.3362 40.3306 34.2686 40.3656 34.1996 40.4076C34.1343 40.4472 34.0748 40.4892 34.0177 40.5417C33.9896 40.5662 33.9559 40.5779 33.9302 40.6058L23.6527 51.8621L14.1851 42.5507L20.3825 36.3859C20.8387 35.9309 20.8411 35.1924 20.386 34.735C20.1562 34.5052 19.8541 34.392 19.5519 34.3932V34.3921L14.6985 34.4213L14.7592 30.9049L21.5493 30.9633C24.3166 33.7937 28.176 35.5589 32.4461 35.5589C33.4027 35.5589 34.3361 35.4598 35.2449 35.2905C35.3324 35.3605 35.4186 35.4318 35.5284 35.4761L40.7996 37.5761L41.1332 39.2351L41.5228 41.1717L34.9545 40.2372ZM43.7944 40.6269L43.1096 37.219L46.2736 34.8564L47.102 35.9554L48.3445 37.6051L43.7944 40.6269ZM52.0055 34.4341L50.1726 36.1515L48.1356 33.4471L49.9544 32.053C50.2939 31.7917 50.7221 31.6855 51.1421 31.7403C51.5644 31.7998 51.9378 32.0203 52.1921 32.3621C52.6659 33.0003 52.5853 33.8905 52.0055 34.4341Z" fill="#212121"/>
<path d="M29.7545 40.5651L25.0668 35.8984C24.613 35.4446 23.8755 35.4446 23.4205 35.8984L18.734 40.5651C18.5147 40.7856 18.391 41.0819 18.391 41.3922C18.391 41.7026 18.5135 42.0001 18.734 42.2194L23.4205 46.8861C23.648 47.1124 23.9468 47.2256 24.2443 47.2256C24.5418 47.2256 24.8404 47.1124 25.0668 46.8861L29.7545 42.2194C29.9738 42.0001 30.0987 41.7026 30.0987 41.3922C30.0987 41.0819 29.9749 40.7844 29.7545 40.5651ZM24.2443 44.4128L21.2109 41.3922L24.2443 38.3717L27.2788 41.3922L24.2443 44.4128Z" fill="#212121"/>
<path d="M37.5468 11.0923L36.9833 13.3581C37.1385 13.3966 40.7844 14.3463 40.7844 18.0587H43.1178C43.1177 13.6461 39.4742 11.5718 37.5468 11.0923Z" fill="#212121"/>
<path d="M43.1178 20.3919H40.7844V22.7253H43.1178V20.3919Z" fill="#212121"/>
</symbol>
<symbol id="icon-clock" viewBox="0 0 70 70">
<path d="M68.4614 33.4715C68.4577 14.9819 53.4656 -0.00373771 34.9755 6.99302e-07C16.4859 0.00373911 1.5002 14.9963 1.50394 33.4859C1.50714 48.0502 10.9252 60.9413 24.7995 65.3713C24.932 65.413 25.0698 65.4343 25.2081 65.4338C25.4719 65.4333 25.7304 65.3628 25.9574 65.2287C26.2527 65.0541 26.4733 64.7764 26.5769 64.449L35.0315 37.6521C37.3429 37.6404 39.2068 35.7568 39.1945 33.4459C39.1828 31.1345 37.2997 29.2706 34.9883 29.2824C34.3666 29.285 33.753 29.4282 33.1944 29.7011L22.0251 18.5302C21.4708 17.9951 20.588 18.0106 20.0528 18.5644C19.5305 19.1054 19.5305 19.962 20.0528 20.503L31.2162 31.6792C30.3596 33.4277 30.8493 35.5383 32.3896 36.7303L24.3338 62.2647C8.41358 56.4002 0.261719 38.7405 6.12621 22.8203C11.9907 6.90002 29.6504 -1.25183 45.5706 4.61266C61.4909 10.4771 69.6428 28.1374 63.7783 44.0571C60.913 51.8351 55.0261 58.1252 47.4548 61.4989L46.5843 57.3989C46.4251 56.6454 45.6844 56.1636 44.9308 56.3233C44.6932 56.3741 44.4726 56.4857 44.291 56.6475L35.8978 64.1409C35.3221 64.653 35.2708 65.5347 35.7835 66.1105C35.9501 66.2974 36.1637 66.4362 36.403 66.5126L47.1189 69.9327C47.8521 70.1682 48.6377 69.765 48.8732 69.0312C48.948 68.7994 48.9603 68.5527 48.9101 68.3145L48.0545 64.2915C60.4452 59.0678 68.4903 46.918 68.4614 33.4715ZM34.9829 32.0766C35.7531 32.0766 36.3779 32.7014 36.3779 33.4715C36.3779 34.2422 35.7531 34.8665 34.9829 34.8665C34.2123 34.8665 33.588 34.2422 33.588 33.4715C33.588 32.7014 34.2123 32.0766 34.9829 32.0766ZM39.5774 64.5916L44.3551 60.3298L45.6737 66.543L39.5774 64.5916Z" fill="#212121"/>
<path d="M33.588 6.96732V9.75723C33.588 10.5279 34.2123 11.1522 34.9829 11.1522C35.753 11.1522 36.3779 10.5279 36.3779 9.75723V6.96732C36.3779 6.1972 35.753 5.57236 34.9829 5.57236C34.2123 5.57236 33.588 6.1972 33.588 6.96732Z" fill="#2196F3"/>
<path d="M8.47871 32.0765C7.70807 32.0765 7.08376 32.7014 7.08376 33.4715C7.08376 34.2421 7.70807 34.8665 8.47871 34.8665H11.2686C12.0393 34.8665 12.6636 34.2421 12.6636 33.4715C12.6636 32.7014 12.0393 32.0765 11.2686 32.0765H8.47871Z" fill="#2196F3"/>
<path d="M61.4865 34.8665C62.2572 34.8665 62.8815 34.2421 62.8815 33.4715C62.8815 32.7014 62.2572 32.0765 61.4865 32.0765H58.6966C57.9265 32.0765 57.3017 32.7014 57.3017 33.4715C57.3017 34.2421 57.9265 34.8665 58.6966 34.8665H61.4865Z" fill="#2196F3"/>
</symbol>
<symbol id="icon-diagram" viewBox="0 0 70 70">
<path d="M32.6496 32.7351H34.9817V43.2296H32.6496V32.7351Z" fill="#2196F3"/>
<path d="M41.978 37.3993H44.3102V43.2296H41.978V37.3993Z" fill="#2196F3"/>
<path d="M23.3211 40.8975H25.6532V43.2296H23.3211V40.8975Z" fill="#2196F3"/>
<path d="M16.3248 39.7314H18.6569V43.2295H16.3248V39.7314Z" fill="#2196F3"/>
<path d="M3.49817 61.8865H59.4689C61.4007 61.8865 62.967 60.3202 62.967 58.3883V53.7241C62.967 51.7922 61.4007 50.2259 59.4689 50.2259H58.3028V21.1468L64.9262 14.8724C66.4635 15.6303 68.3242 15.1702 69.3302 13.7815C70.3369 12.3934 70.1957 10.4821 68.9966 9.25681C67.7975 8.03154 65.8901 7.84877 64.4798 8.82409C63.0701 9.79998 62.569 11.6498 63.2933 13.2036L58.3028 17.9345V15.2442C58.3028 13.3124 56.7365 11.7461 54.8046 11.7461H8.16239C6.23054 11.7461 4.66422 13.3124 4.66422 15.2442V50.2259H3.49817C1.56632 50.2259 0 51.7922 0 53.7241V58.3883C0 60.3202 1.56632 61.8865 3.49817 61.8865ZM66.4652 10.58C67.1091 10.58 67.6312 11.1021 67.6312 11.7461C67.6312 12.39 67.1091 12.9121 66.4652 12.9121C65.8212 12.9121 65.2991 12.39 65.2991 11.7461C65.2991 11.1021 65.8212 10.58 66.4652 10.58ZM6.99634 15.2442C6.99634 14.6003 7.51844 14.0782 8.16239 14.0782H54.8046C55.4486 14.0782 55.9707 14.6003 55.9707 15.2442V20.1413L53.6386 22.3573V17.5763C53.6386 16.9324 53.1165 16.4103 52.4725 16.4103H10.4945C9.85055 16.4103 9.32845 16.9324 9.32845 17.5763V46.7277C9.32845 47.3717 9.85055 47.8938 10.4945 47.8938H52.4725C53.1165 47.8938 53.6386 47.3717 53.6386 46.7277V25.5651L55.9707 23.3554V50.2259H6.99634V15.2442ZM17.4908 30.403C15.9131 30.3984 14.5279 31.4495 14.1083 32.9702C13.6886 34.491 14.3383 36.104 15.6951 36.9091C17.0513 37.7142 18.7793 37.512 19.9129 36.4149L23.9662 38.4486C24.4371 38.6844 25.0081 38.5739 25.3583 38.1805L33.9745 28.4871L42.4443 34.8337C42.8987 35.1742 43.5329 35.1378 43.9452 34.7478L51.3065 27.7748V45.5617H11.6606V18.7424H51.3065V24.5619L43.0564 32.3747L34.5154 25.9716C34.0303 25.6084 33.3476 25.6767 32.9445 26.1293L24.2099 35.9571L20.9446 34.3242C20.9685 34.1841 20.9833 34.0429 20.989 33.9011C20.989 31.9693 19.4227 30.403 17.4908 30.403ZM18.6569 33.9011C18.6569 34.5451 18.1348 35.0672 17.4908 35.0672C16.8469 35.0672 16.3248 34.5451 16.3248 33.9011C16.3248 33.2572 16.8469 32.7351 17.4908 32.7351C18.1348 32.7351 18.6569 33.2572 18.6569 33.9011ZM25.6532 52.558H37.3138V53.7241C37.3138 54.368 36.7917 54.8901 36.1477 54.8901H26.8193C26.1753 54.8901 25.6532 54.368 25.6532 53.7241V52.558ZM2.33211 53.7241C2.33211 53.0801 2.85422 52.558 3.49817 52.558H23.3211V53.7241C23.3211 55.6559 24.8874 57.2223 26.8193 57.2223H36.1477C38.0796 57.2223 39.6459 55.6559 39.6459 53.7241V52.558H59.4689C60.1128 52.558 60.6349 53.0801 60.6349 53.7241V58.3883C60.6349 59.0323 60.1128 59.5544 59.4689 59.5544H3.49817C2.85422 59.5544 2.33211 59.0323 2.33211 58.3883V53.7241Z" fill="#212121"/>
</symbol>
<symbol id="icon-envelope" viewBox="0 0 43 32">
<path d="M38.667 0h-34.667c-2.206 0-4 1.794-4 4v24c0 2.206 1.794 4 4 4h34.667c2.206 0 4-1.794 4-4v-24c0-2.206-1.794-4-4-4zM38.667 2.667c0.181 0 0.353 0.038 0.511 0.103l-17.844 15.466-17.844-15.466c0.158-0.066 0.33-0.103 0.511-0.103h34.667zM38.667 29.333h-34.667c-0.736 0-1.333-0.598-1.333-1.333v-22.413l17.793 15.421c0.251 0.217 0.563 0.326 0.874 0.326s0.622-0.108 0.874-0.326l17.793-15.421v22.413c0 0.736-0.598 1.333-1.333 1.333z"></path>
</symbol>
<symbol id="icon-facebook" viewBox="0 0 18 32">
<path d="M13.329 5.313h2.921v-5.088c-0.504-0.069-2.237-0.225-4.256-0.225-4.212 0-7.097 2.649-7.097 7.519v4.481h-4.648v5.688h4.648v14.312h5.699v-14.311h4.46l0.708-5.688h-5.169v-3.919c0.001-1.644 0.444-2.769 2.735-2.769z"></path>
</symbol>
<symbol id="icon-instagram" viewBox="0 0 32 32">
<path d="M31.969 9.408c-0.075-1.7-0.35-2.869-0.744-3.882-0.406-1.075-1.031-2.038-1.85-2.838-0.8-0.813-1.769-1.444-2.832-1.844-1.019-0.394-2.182-0.669-3.882-0.744-1.713-0.081-2.257-0.1-6.601-0.1s-4.888 0.019-6.595 0.094c-1.7 0.075-2.869 0.35-3.882 0.744-1.075 0.406-2.038 1.031-2.838 1.85-0.813 0.8-1.444 1.769-1.844 2.832-0.394 1.019-0.669 2.182-0.744 3.882-0.081 1.713-0.1 2.257-0.1 6.601s0.019 4.888 0.094 6.595c0.075 1.7 0.35 2.869 0.744 3.882 0.406 1.075 1.038 2.038 1.85 2.838 0.8 0.813 1.769 1.444 2.832 1.844 1.019 0.394 2.182 0.669 3.882 0.744 1.706 0.075 2.25 0.094 6.595 0.094s4.888-0.019 6.595-0.094c1.7-0.075 2.869-0.35 3.882-0.744 2.151-0.832 3.851-2.532 4.682-4.682 0.394-1.019 0.669-2.182 0.744-3.882 0.075-1.707 0.094-2.251 0.094-6.595s-0.006-4.888-0.081-6.595zM29.087 22.473c-0.069 1.563-0.331 2.407-0.55 2.969-0.538 1.394-1.644 2.5-3.038 3.038-0.563 0.219-1.413 0.481-2.969 0.55-1.688 0.075-2.194 0.094-6.464 0.094s-4.782-0.019-6.464-0.094c-1.563-0.069-2.407-0.331-2.969-0.55-0.694-0.256-1.325-0.663-1.838-1.194-0.531-0.519-0.938-1.144-1.194-1.838-0.219-0.563-0.481-1.413-0.55-2.969-0.075-1.688-0.094-2.194-0.094-6.464s0.019-4.782 0.094-6.464c0.069-1.563 0.331-2.407 0.55-2.969 0.256-0.694 0.663-1.325 1.2-1.838 0.519-0.531 1.144-0.938 1.838-1.194 0.563-0.219 1.413-0.481 2.969-0.55 1.688-0.075 2.194-0.094 6.464-0.094 4.276 0 4.782 0.019 6.464 0.094 1.563 0.069 2.407 0.331 2.969 0.55 0.694 0.256 1.325 0.662 1.838 1.194 0.531 0.519 0.938 1.144 1.194 1.838 0.219 0.563 0.481 1.413 0.55 2.969 0.075 1.688 0.094 2.194 0.094 6.464s-0.019 4.77-0.094 6.458z"></path>
<path d="M16.059 7.783c-4.538 0-8.22 3.682-8.22 8.22s3.682 8.22 8.22 8.22c4.538 0 8.22-3.682 8.22-8.22s-3.682-8.22-8.22-8.22zM16.059 21.335c-2.944 0-5.332-2.388-5.332-5.332s2.388-5.332 5.332-5.332c2.944 0 5.332 2.388 5.332 5.332s-2.388 5.332-5.332 5.332z"></path>
<path d="M26.524 7.458c0 1.060-0.859 1.919-1.919 1.919s-1.919-0.859-1.919-1.919c0-1.060 0.859-1.919 1.919-1.919s1.919 0.859 1.919 1.919z"></path>
</symbol>
<symbol id="icon-linkedin" viewBox="0 0 32 32">
<path d="M31.992 32v-0.001h0.008v-11.736c0-5.741-1.236-10.164-7.948-10.164-3.227 0-5.392 1.771-6.276 3.449h-0.093v-2.913h-6.364v21.364h6.627v-10.579c0-2.785 0.528-5.479 3.977-5.479 3.399 0 3.449 3.179 3.449 5.657v10.401h6.62z"></path>
<path d="M0.528 10.636h6.635v21.364h-6.635v-21.364z"></path>
<path d="M3.843 0c-2.121 0-3.843 1.721-3.843 3.843s1.721 3.879 3.843 3.879c2.121 0 3.843-1.757 3.843-3.879-0.001-2.121-1.723-3.843-3.843-3.843v0z"></path>
</symbol>
<symbol id="icon-logo1" viewBox="0 0 29 32">
<path d="M3.84 0l4.677 4.428h13.046v12.351l4.677 4.428v-21.206h-22.4z"></path>
<path d="M0 4.241v20.6h21.76v-8.188l-13.105-12.406-8.655-0.005zM17.615 21.828h-14.172v-13.854h1.002v12.916h13.17v0.938z"></path>
<path d="M6.266 28.662l0.523-1.078h0.438l-0.763 1.438v0.837h-0.397v-0.837l-0.764-1.438h0.439l0.523 1.078zM8.513 29.329h-0.881l-0.184 0.53h-0.411l0.859-2.275h0.355l0.861 2.275h-0.412l-0.186-0.53zM7.743 29.010h0.659l-0.33-0.944-0.33 0.944zM10.071 29.244c0-0.105 0.029-0.202 0.086-0.289 0.057-0.089 0.17-0.193 0.339-0.314-0.088-0.111-0.151-0.206-0.186-0.284s-0.052-0.154-0.052-0.227c0-0.178 0.054-0.319 0.162-0.422s0.254-0.156 0.438-0.156c0.166 0 0.301 0.049 0.406 0.147 0.106 0.097 0.159 0.217 0.159 0.361 0 0.095-0.024 0.182-0.072 0.262-0.048 0.079-0.127 0.158-0.236 0.238l-0.155 0.113 0.439 0.519c0.064-0.125 0.095-0.264 0.095-0.417h0.33c0 0.28-0.066 0.51-0.197 0.689l0.334 0.395h-0.441l-0.128-0.152c-0.162 0.122-0.356 0.183-0.581 0.183s-0.405-0.059-0.541-0.178c-0.134-0.12-0.202-0.276-0.202-0.467zM10.824 29.587c0.128 0 0.248-0.043 0.359-0.128l-0.497-0.586-0.048 0.034c-0.125 0.095-0.188 0.203-0.188 0.325 0 0.105 0.034 0.191 0.102 0.256s0.158 0.098 0.272 0.098zM10.615 28.121c0 0.087 0.054 0.197 0.161 0.33l0.173-0.119 0.048-0.039c0.065-0.057 0.097-0.131 0.097-0.22 0-0.059-0.022-0.11-0.067-0.152-0.045-0.043-0.102-0.064-0.17-0.064-0.074 0-0.133 0.025-0.177 0.075s-0.066 0.113-0.066 0.189zM14.748 29.118c-0.023 0.243-0.113 0.432-0.269 0.569-0.156 0.135-0.364 0.203-0.623 0.203-0.181 0-0.341-0.043-0.48-0.128-0.137-0.086-0.244-0.209-0.319-0.367s-0.114-0.342-0.117-0.552v-0.212c0-0.215 0.038-0.404 0.114-0.567s0.185-0.29 0.327-0.378c0.143-0.088 0.307-0.133 0.494-0.133 0.251 0 0.453 0.068 0.606 0.205s0.242 0.329 0.267 0.578h-0.394c-0.019-0.164-0.067-0.281-0.144-0.353-0.076-0.073-0.188-0.109-0.336-0.109-0.172 0-0.304 0.063-0.397 0.189-0.092 0.125-0.139 0.309-0.141 0.552v0.202c0 0.246 0.044 0.433 0.131 0.563s0.218 0.194 0.387 0.194c0.155 0 0.272-0.035 0.35-0.105s0.128-0.186 0.148-0.348h0.394zM16.918 28.78c0 0.223-0.039 0.419-0.116 0.588-0.077 0.168-0.188 0.297-0.331 0.388-0.143 0.090-0.307 0.134-0.494 0.134-0.184 0-0.349-0.045-0.494-0.134-0.144-0.091-0.255-0.219-0.334-0.386-0.078-0.167-0.118-0.359-0.119-0.576v-0.128c0-0.222 0.039-0.418 0.117-0.588 0.079-0.17 0.19-0.299 0.333-0.389 0.144-0.091 0.308-0.136 0.494-0.136s0.349 0.045 0.492 0.134c0.144 0.088 0.255 0.217 0.333 0.384s0.118 0.361 0.119 0.583v0.127zM16.523 28.662c0-0.252-0.048-0.445-0.144-0.58-0.095-0.134-0.23-0.202-0.405-0.202-0.171 0-0.305 0.067-0.402 0.202-0.096 0.133-0.145 0.322-0.147 0.567v0.131c0 0.25 0.048 0.443 0.145 0.58s0.233 0.205 0.406 0.205c0.175 0 0.309-0.067 0.403-0.2 0.095-0.133 0.142-0.328 0.142-0.584v-0.119z"></path>
</symbol>
<symbol id="icon-logo2" viewBox="0 0 25 32">
<path d="M10.447 1.806h0.084c0.156 0 0.324 0.016 0.49 0.030 0.734 0.052 1.463 0.162 2.179 0.329v-1.762c-0.738-0.185-1.491-0.305-2.25-0.358-0.288-0.022-0.595-0.036-0.909-0.044h-0.263c-1.523 0.006-3.039 0.201-4.515 0.582-1.68 0.419-3.293 1.075-4.79 1.948v17.475c1.442-0.783 2.976-1.381 4.566-1.779 1.256-0.32 2.539-0.517 3.833-0.588h0.051c0.216-0.011 0.433-0.017 0.655-0.019v-1.79c-1.681 0.022-3.353 0.244-4.982 0.662-0.602 0.157-1.185 0.325-1.731 0.513l-0.623 0.211v-13.625l0.266-0.128c2.032-0.963 4.229-1.524 6.471-1.651 0.019-0.001 0.037-0.001 0.056 0 0.248-0.013 0.497-0.019 0.741-0.019h0.28c0.129 0.003 0.258 0.006 0.388 0.014z"></path>
<path d="M14.837 3.651c-0.409 0-0.814-0.014-1.205-0.044-0.467-0.034-0.947-0.091-1.401-0.167-0.277-0.047-0.55-0.103-0.814-0.164v17.275c1.12 0.277 2.271 0.413 3.425 0.404 1.523-0.006 3.039-0.201 4.515-0.581 1.68-0.42 3.294-1.075 4.792-1.948v-17.163c-1.442 0.783-2.975 1.381-4.564 1.781-1.551 0.398-3.145 0.603-4.747 0.609zM21.745 3.95l0.623-0.21v13.63l-0.266 0.128c-1.021 0.486-2.087 0.869-3.184 1.144-1.331 0.344-2.7 0.522-4.074 0.527-0.411 0-0.819-0.017-1.214-0.052l-0.427-0.038v-14.017l0.497 0.033c0.361 0.023 0.735 0.034 1.141 0.034 1.745-0.006 3.482-0.229 5.173-0.663 0.581-0.153 1.158-0.325 1.731-0.518z"></path>
<path d="M1.684 25.977c-0.090-0.093-0.197-0.166-0.317-0.214s-0.247-0.071-0.376-0.066c-0.137-0.002-0.273 0.024-0.4 0.075-0.117 0.046-0.222 0.116-0.311 0.205s-0.156 0.196-0.201 0.313c-0.049 0.123-0.073 0.254-0.072 0.387v2.335c-0.006 0.165 0.026 0.328 0.092 0.479 0.055 0.12 0.135 0.226 0.233 0.313 0.093 0.079 0.203 0.135 0.321 0.166 0.114 0.032 0.231 0.048 0.349 0.049 0.13 0.001 0.259-0.027 0.377-0.081 0.117-0.051 0.222-0.124 0.311-0.216 0.087-0.091 0.156-0.197 0.204-0.313 0.050-0.118 0.075-0.244 0.075-0.372v-0.261h-0.61v0.208c0.002 0.071-0.010 0.142-0.036 0.208-0.020 0.050-0.050 0.095-0.089 0.131-0.038 0.031-0.081 0.053-0.128 0.067-0.041 0.014-0.084 0.021-0.128 0.022-0.054 0.006-0.11-0.002-0.16-0.024s-0.094-0.057-0.126-0.101c-0.058-0.094-0.086-0.203-0.081-0.313v-2.177c-0.004-0.121 0.022-0.241 0.075-0.349 0.032-0.049 0.077-0.089 0.129-0.114s0.112-0.034 0.17-0.027c0.053-0.002 0.105 0.009 0.152 0.032s0.089 0.057 0.12 0.099c0.068 0.090 0.104 0.2 0.101 0.313v0.202h0.604v-0.238c0.001-0.14-0.024-0.278-0.075-0.408-0.045-0.122-0.114-0.234-0.204-0.329z"></path>
<path d="M5.31 25.95c-0.195-0.164-0.44-0.255-0.694-0.257-0.124 0-0.248 0.023-0.364 0.066-0.119 0.042-0.228 0.107-0.322 0.191-0.101 0.091-0.182 0.202-0.237 0.327-0.061 0.143-0.092 0.297-0.089 0.452v2.239c-0.004 0.158 0.026 0.314 0.089 0.459 0.055 0.12 0.136 0.227 0.237 0.313 0.093 0.087 0.203 0.154 0.322 0.197 0.117 0.043 0.24 0.065 0.364 0.066s0.248-0.023 0.364-0.066c0.121-0.044 0.233-0.111 0.33-0.197 0.097-0.087 0.176-0.194 0.23-0.313 0.063-0.145 0.093-0.301 0.089-0.459v-2.239c0.003-0.155-0.027-0.31-0.089-0.452-0.054-0.123-0.133-0.235-0.23-0.327zM5.025 28.969c0.005 0.060-0.003 0.12-0.024 0.176s-0.054 0.107-0.097 0.148c-0.081 0.068-0.182 0.105-0.287 0.105s-0.207-0.037-0.287-0.105c-0.043-0.041-0.076-0.092-0.097-0.148s-0.029-0.116-0.024-0.176v-2.239c-0.005-0.060 0.003-0.12 0.024-0.176s0.054-0.107 0.097-0.148c0.081-0.068 0.182-0.105 0.287-0.105s0.207 0.037 0.287 0.105c0.043 0.041 0.076 0.092 0.097 0.148s0.029 0.116 0.024 0.176v2.239z"></path>
<path d="M10.072 29.969v-4.239h-0.587l-0.771 2.244h-0.011l-0.777-2.244h-0.581v4.239h0.606v-2.579h0.011l0.593 1.823h0.302l0.598-1.823h0.011v2.579h0.606z"></path>
<path d="M13.513 26.027c-0.093-0.105-0.211-0.184-0.342-0.232-0.142-0.046-0.29-0.068-0.439-0.066h-0.9v4.239h0.604v-1.656h0.311c0.188 0.009 0.376-0.031 0.545-0.116 0.137-0.076 0.252-0.188 0.332-0.324 0.070-0.113 0.117-0.238 0.139-0.369 0.024-0.16 0.035-0.321 0.033-0.482 0.006-0.204-0.014-0.407-0.059-0.606-0.040-0.147-0.117-0.281-0.223-0.39zM13.201 27.319c-0.003 0.077-0.022 0.152-0.056 0.221-0.035 0.065-0.089 0.117-0.156 0.149-0.089 0.040-0.187 0.058-0.285 0.053h-0.276v-1.441h0.311c0.094-0.005 0.187 0.014 0.273 0.053 0.062 0.036 0.112 0.091 0.142 0.157 0.033 0.074 0.051 0.155 0.053 0.236 0 0.089 0 0.183 0 0.282s0.006 0.2 0 0.291h-0.006z"></path>
<path d="M16.374 25.73h-0.495l-0.934 4.239h0.604l0.177-0.911h0.824l0.177 0.911h0.604l-0.957-4.239zM15.817 28.481l0.297-1.537h0.011l0.296 1.537h-0.604z"></path>
<path d="M20.277 28.284h-0.011l-0.912-2.554h-0.581v4.239h0.604v-2.549h0.012l0.923 2.549h0.568v-4.239h-0.604v2.554z"></path>
<path d="M23.968 25.73l-0.486 1.685h-0.012l-0.486-1.685h-0.64l0.83 2.447v1.792h0.604v-1.792l0.83-2.447h-0.64z"></path>
<path d="M0 31.166h0.291v0.817h0.198v-0.817h0.29v-0.167h-0.778v0.167z"></path>
<path d="M2.447 30.998l-0.381 0.984h0.21l0.081-0.224h0.392l0.084 0.224h0.215l-0.391-0.984h-0.21zM2.416 31.593l0.134-0.365 0.134 0.365h-0.268z"></path>
<path d="M4.866 31.62h0.227v0.127c-0.066 0.053-0.149 0.082-0.234 0.083-0.040 0.002-0.079-0.005-0.116-0.021s-0.068-0.041-0.093-0.072c-0.052-0.075-0.078-0.165-0.073-0.257 0-0.219 0.095-0.329 0.283-0.329 0.050-0.005 0.099 0.008 0.14 0.037s0.070 0.071 0.082 0.12l0.195-0.038c-0.042-0.192-0.181-0.289-0.417-0.289-0.127-0.003-0.25 0.042-0.344 0.127-0.050 0.049-0.088 0.108-0.112 0.174s-0.034 0.135-0.029 0.205c-0.006 0.135 0.039 0.267 0.126 0.369 0.048 0.050 0.107 0.088 0.171 0.113s0.134 0.035 0.203 0.031c0.154 0.004 0.304-0.052 0.417-0.157v-0.388h-0.427v0.166z"></path>
<path d="M7.337 30.998h-0.199v0.984h0.69v-0.167h-0.49v-0.817z"></path>
<path d="M9.426 30.998h-0.199v0.984h0.199v-0.984z"></path>
<path d="M11.469 31.656l-0.403-0.657h-0.193v0.984h0.185v-0.643l0.395 0.643h0.198v-0.984h-0.182v0.657z"></path>
<path d="M13.315 31.549h0.49v-0.167h-0.49v-0.216h0.528v-0.167h-0.727v0.984h0.747v-0.167h-0.548v-0.266z"></path>
<path d="M17.792 31.387h-0.388v-0.388h-0.198v0.984h0.198v-0.43h0.388v0.43h0.198v-0.984h-0.198v0.388z"></path>
<path d="M19.649 31.549h0.492v-0.167h-0.492v-0.216h0.529v-0.167h-0.727v0.984h0.746v-0.167h-0.548v-0.266z"></path>
<path d="M22.168 31.549c0.171-0.027 0.258-0.117 0.258-0.274 0.005-0.042-0.001-0.084-0.018-0.123s-0.044-0.072-0.078-0.096c-0.089-0.045-0.189-0.065-0.288-0.058h-0.417v0.984h0.198v-0.412h0.039c0.042-0.003 0.084 0.005 0.123 0.022 0.029 0.018 0.053 0.043 0.070 0.072l0.215 0.313h0.237l-0.12-0.192c-0.053-0.095-0.128-0.176-0.218-0.236zM21.969 31.413h-0.146v-0.247h0.156c0.068-0.005 0.136 0.002 0.201 0.023 0.014 0.013 0.026 0.029 0.033 0.046s0.011 0.037 0.010 0.056c-0.001 0.019-0.006 0.038-0.015 0.055s-0.022 0.032-0.037 0.043c-0.065 0.020-0.133 0.028-0.201 0.023z"></path>
<path d="M24.067 31.549h0.49v-0.167h-0.49v-0.216h0.529v-0.167h-0.729v0.984h0.747v-0.167h-0.548v-0.266z"></path>
</symbol>
<symbol id="icon-logo3" viewBox="0 0 31 32">
<path d="M4.722 31.103c0.011 0 0.022 0.003 0.032 0.007s0.019 0.011 0.027 0.018l0.153 0.161c-0.119 0.13-0.266 0.234-0.431 0.305-0.193 0.077-0.401 0.115-0.611 0.109-0.197 0.004-0.392-0.031-0.574-0.102-0.164-0.065-0.312-0.164-0.433-0.288-0.123-0.129-0.218-0.28-0.279-0.445-0.067-0.184-0.1-0.377-0.098-0.571-0.003-0.195 0.033-0.39 0.105-0.573 0.067-0.166 0.168-0.317 0.297-0.445 0.131-0.126 0.287-0.224 0.459-0.29 0.189-0.070 0.389-0.104 0.591-0.102 0.188-0.004 0.375 0.027 0.549 0.093 0.152 0.063 0.291 0.15 0.412 0.257l-0.128 0.171c-0.009 0.012-0.020 0.023-0.033 0.031-0.015 0.010-0.033 0.014-0.052 0.013-0.020-0.001-0.039-0.008-0.056-0.018l-0.069-0.046-0.096-0.058c-0.041-0.022-0.084-0.041-0.128-0.057-0.057-0.019-0.115-0.035-0.174-0.046-0.075-0.013-0.151-0.019-0.228-0.018-0.146-0.002-0.29 0.024-0.425 0.077-0.126 0.048-0.239 0.122-0.333 0.215-0.095 0.099-0.169 0.216-0.216 0.343-0.054 0.145-0.080 0.298-0.078 0.452-0.002 0.156 0.024 0.312 0.078 0.46 0.047 0.126 0.119 0.242 0.212 0.341 0.088 0.093 0.196 0.165 0.318 0.212 0.125 0.049 0.259 0.074 0.394 0.073 0.078 0.001 0.156-0.004 0.234-0.015 0.126-0.015 0.247-0.056 0.354-0.122 0.054-0.034 0.104-0.072 0.151-0.113 0.020-0.018 0.046-0.028 0.073-0.029z"></path>
<path d="M9.144 30.296c0.002 0.194-0.033 0.386-0.103 0.567-0.062 0.165-0.161 0.315-0.288 0.44s-0.282 0.224-0.452 0.289c-0.375 0.136-0.789 0.136-1.164 0-0.169-0.066-0.323-0.165-0.45-0.29-0.128-0.128-0.227-0.279-0.291-0.445-0.138-0.367-0.138-0.769 0-1.136 0.065-0.166 0.164-0.317 0.291-0.447 0.128-0.121 0.281-0.216 0.45-0.279 0.374-0.139 0.79-0.139 1.164 0 0.17 0.066 0.324 0.165 0.452 0.29 0.126 0.127 0.224 0.276 0.289 0.44 0.071 0.183 0.106 0.376 0.103 0.571zM8.742 30.296c0.003-0.155-0.022-0.309-0.073-0.456-0.043-0.126-0.113-0.242-0.205-0.341-0.090-0.094-0.2-0.167-0.323-0.215-0.272-0.1-0.574-0.1-0.846 0-0.123 0.048-0.234 0.121-0.324 0.215-0.093 0.098-0.164 0.215-0.207 0.341-0.097 0.297-0.097 0.615 0 0.912 0.043 0.126 0.114 0.242 0.207 0.341 0.090 0.093 0.2 0.166 0.324 0.213 0.273 0.097 0.573 0.097 0.846 0 0.123-0.047 0.234-0.12 0.323-0.213 0.092-0.099 0.162-0.215 0.205-0.341 0.051-0.147 0.076-0.301 0.073-0.456z"></path>
<path d="M12.161 30.774l0.040 0.102c0.015-0.036 0.029-0.069 0.044-0.102 0.015-0.034 0.031-0.068 0.050-0.1l0.978-1.694c0.019-0.029 0.036-0.047 0.056-0.053 0.026-0.008 0.053-0.011 0.080-0.009h0.289v2.755h-0.343v-2.026c0-0.026 0-0.055 0-0.086-0.002-0.032-0.002-0.063 0-0.095l-0.984 1.718c-0.012 0.026-0.033 0.047-0.058 0.063s-0.054 0.023-0.084 0.023h-0.056c-0.030 0-0.059-0.007-0.084-0.023s-0.045-0.037-0.057-0.063l-1.013-1.729c0 0.033 0 0.066 0 0.099s0 0.062 0 0.088v2.026h-0.331v-2.75h0.289c0.027-0.002 0.054 0.002 0.080 0.009 0.024 0.011 0.043 0.030 0.054 0.053l0.999 1.696c0.020 0.031 0.036 0.064 0.050 0.098z"></path>
<path d="M15.842 30.638v1.032h-0.383v-2.752h0.854c0.161-0.003 0.322 0.017 0.477 0.060 0.124 0.033 0.239 0.092 0.337 0.171 0.085 0.075 0.151 0.167 0.191 0.27 0.045 0.112 0.067 0.232 0.065 0.352 0.002 0.121-0.022 0.24-0.071 0.352-0.046 0.106-0.117 0.2-0.207 0.275-0.098 0.083-0.214 0.145-0.339 0.182-0.149 0.045-0.305 0.067-0.461 0.064l-0.463-0.007zM15.842 30.342h0.463c0.101 0.001 0.201-0.013 0.297-0.042 0.079-0.025 0.152-0.066 0.214-0.119 0.058-0.050 0.102-0.113 0.13-0.182 0.031-0.074 0.047-0.152 0.046-0.232 0.004-0.076-0.009-0.153-0.038-0.224s-0.075-0.135-0.134-0.188c-0.146-0.109-0.33-0.162-0.515-0.148h-0.463v1.134z"></path>
<path d="M20.987 31.673h-0.302c-0.030 0.001-0.060-0.008-0.084-0.026-0.022-0.017-0.039-0.039-0.050-0.064l-0.26-0.666h-1.307l-0.27 0.666c-0.010 0.024-0.026 0.046-0.048 0.062-0.024 0.019-0.055 0.028-0.086 0.027h-0.302l1.148-2.756h0.398l1.164 2.756zM19.092 30.65h1.080l-0.456-1.122c-0.035-0.084-0.064-0.171-0.086-0.259l-0.044 0.144c-0.013 0.044-0.029 0.084-0.042 0.117l-0.452 1.12z"></path>
<path d="M22.641 28.931c0.023 0.012 0.043 0.029 0.057 0.049l1.675 2.077c0-0.033 0-0.066 0-0.097s0-0.062 0-0.091v-1.951h0.343v2.756h-0.191c-0.027 0.001-0.054-0.005-0.078-0.016-0.024-0.013-0.044-0.030-0.061-0.051l-1.673-2.075c0.002 0.032 0.002 0.063 0 0.095 0 0.031 0 0.058 0 0.084v1.964h-0.343v-2.756h0.203c0.024-0.001 0.047 0.004 0.069 0.013z"></path>
<path d="M27.537 30.577v1.094h-0.383v-1.094l-1.059-1.66h0.343c0.029-0.002 0.059 0.007 0.082 0.024 0.021 0.018 0.038 0.039 0.052 0.062l0.662 1.071c0.027 0.046 0.050 0.088 0.069 0.128s0.034 0.078 0.048 0.117l0.050-0.119c0.019-0.043 0.040-0.085 0.065-0.126l0.653-1.078c0.014-0.021 0.030-0.041 0.050-0.058 0.023-0.019 0.052-0.029 0.082-0.027h0.346l-1.060 1.667z"></path>
<path d="M11.971 24.293c0.167 0.020 0.335 0.036 0.505 0.051 2.583-1.101 4.768-2.902 6.282-5.18s2.29-4.929 2.231-7.624l-2.846-2.712c0.579 2.869 0.308 5.836-0.782 8.567s-2.956 5.12-5.389 6.898z"></path>
<path d="M10.955 24.167l0.077 0.015c2.6-1.772 4.583-4.247 5.691-7.104s1.292-5.965 0.526-8.922l-4.054-3.862c1.64 3.175 2.3 6.728 1.903 10.246s-1.833 6.857-4.143 9.628z"></path>
<path d="M24.704 14.725c-0.689 2.961-2.362 5.632-4.77 7.616-0.703 0.582-1.462 1.101-2.266 1.55 1.961-0.549 3.764-1.52 5.269-2.838s2.672-2.947 3.412-4.763l-1.644-1.565z"></path>
<path d="M24.059 14.289l-2.341-2.23c-0.045 2.543-0.803 5.028-2.197 7.197s-3.372 3.943-5.729 5.137h0.011c0.525-0 1.050-0.030 1.572-0.089 2.203-0.857 4.148-2.219 5.664-3.967s2.553-3.825 3.021-6.047z"></path>
<path d="M11.294 2.664l-2.793-2.664c-2.497 0.919-4.644 2.535-6.161 4.636s-2.332 4.589-2.34 7.139v0c0.009 2.818 1.005 5.552 2.829 7.77s4.372 3.793 7.242 4.476c2.561-2.973 4.061-6.647 4.281-10.488s-0.851-7.648-3.058-10.869z"></path>
<path d="M30.512 13.878c-0.010-3.343-1.409-6.546-3.89-8.91s-5.843-3.696-9.352-3.706c-1.621-0.002-3.229 0.283-4.741 0.841l17.099 16.291c0.585-1.44 0.885-2.971 0.884-4.515z"></path>
</symbol>
<symbol id="icon-logo4" viewBox="0 0 60 32">
<path d="M9.229 9.548h-0.002c-1.684 0-3.048 1.33-3.048 2.971v0.002c0 1.641 1.365 2.971 3.048 2.971h0.002c1.684 0 3.048-1.33 3.048-2.971v-0.002c0-1.641-1.365-2.971-3.048-2.971z"></path>
<path d="M31.73 8.599c-0.005-2.279-0.936-4.463-2.589-6.074s-3.894-2.519-6.233-2.524v0c-2.339 0.004-4.581 0.911-6.235 2.523s-2.586 3.796-2.59 6.076v12.566c0 0 17.645-1.915 17.647-12.564v-0.002z"></path>
<path d="M-0 25.289c0.004 1.586 0.652 3.105 1.803 4.226s2.709 1.753 4.336 1.758c1.627-0.005 3.185-0.636 4.336-1.757s1.799-2.64 1.803-4.225v-8.744c0 0-12.278 1.334-12.278 8.742zM6.139 26.856c-0.318 0-0.629-0.092-0.893-0.264s-0.47-0.417-0.592-0.703-0.154-0.601-0.091-0.905c0.062-0.304 0.215-0.583 0.44-0.802s0.511-0.368 0.823-0.429c0.312-0.060 0.635-0.029 0.929 0.089s0.545 0.319 0.721 0.577c0.177 0.258 0.271 0.561 0.271 0.87 0.001 0.206-0.040 0.411-0.121 0.601s-0.199 0.364-0.348 0.51c-0.149 0.146-0.327 0.262-0.522 0.341s-0.405 0.12-0.617 0.12v-0.006z"></path>
<path d="M18.671 25.884h-1.256v1.297h-0.654v-3.174h2.067v0.53h-1.413v0.82h1.256v0.528zM21.815 25.666c0 0.312-0.055 0.587-0.166 0.822s-0.269 0.417-0.475 0.545c-0.205 0.128-0.44 0.192-0.706 0.192-0.263 0-0.498-0.063-0.704-0.19s-0.366-0.307-0.48-0.541c-0.113-0.235-0.171-0.506-0.172-0.811v-0.157c0-0.312 0.056-0.587 0.168-0.824 0.113-0.238 0.273-0.421 0.477-0.547 0.206-0.128 0.442-0.192 0.706-0.192s0.499 0.064 0.704 0.192c0.206 0.126 0.366 0.309 0.477 0.547 0.113 0.237 0.17 0.511 0.17 0.822v0.142zM21.152 25.522c0-0.333-0.060-0.586-0.179-0.759s-0.289-0.259-0.51-0.259c-0.219 0-0.389 0.086-0.508 0.257-0.119 0.17-0.18 0.42-0.181 0.75v0.155c0 0.324 0.060 0.576 0.179 0.754s0.291 0.268 0.515 0.268c0.22 0 0.388-0.086 0.506-0.257 0.118-0.173 0.177-0.424 0.179-0.754v-0.155zM23.936 26.348c0-0.124-0.044-0.218-0.131-0.283-0.087-0.067-0.244-0.137-0.471-0.209-0.227-0.074-0.406-0.147-0.539-0.218-0.36-0.195-0.541-0.457-0.541-0.787 0-0.172 0.048-0.324 0.144-0.458 0.097-0.135 0.236-0.241 0.416-0.316 0.182-0.076 0.385-0.113 0.61-0.113 0.227 0 0.429 0.041 0.606 0.124 0.177 0.081 0.315 0.197 0.412 0.347 0.099 0.15 0.148 0.32 0.148 0.51h-0.654c0-0.145-0.046-0.258-0.137-0.338-0.092-0.081-0.22-0.122-0.386-0.122-0.16 0-0.284 0.034-0.373 0.102-0.089 0.067-0.133 0.156-0.133 0.266 0 0.103 0.052 0.19 0.155 0.259 0.105 0.070 0.258 0.135 0.46 0.196 0.372 0.112 0.643 0.251 0.813 0.416s0.255 0.372 0.255 0.619c0 0.275-0.104 0.491-0.312 0.648-0.208 0.156-0.488 0.233-0.839 0.233-0.244 0-0.467-0.044-0.667-0.133-0.201-0.090-0.354-0.213-0.46-0.368-0.105-0.156-0.157-0.336-0.157-0.541h0.656c0 0.35 0.209 0.525 0.628 0.525 0.156 0 0.277-0.031 0.364-0.094 0.087-0.064 0.131-0.153 0.131-0.266zM27.427 24.536h-0.972v2.645h-0.654v-2.645h-0.959v-0.53h2.586v0.53zM29.712 25.805h-1.256v0.85h1.474v0.525h-2.128v-3.174h2.124v0.53h-1.469v0.757h1.256v0.512zM31.489 26.019h-0.521v1.162h-0.654v-3.174h1.18c0.375 0 0.664 0.084 0.868 0.251s0.305 0.403 0.305 0.709c0 0.217-0.047 0.397-0.142 0.543-0.093 0.144-0.235 0.259-0.425 0.344l0.687 1.297v0.030h-0.702l-0.595-1.162zM30.967 25.489h0.528c0.164 0 0.291-0.041 0.382-0.124 0.090-0.084 0.135-0.2 0.135-0.347 0-0.15-0.043-0.267-0.129-0.353-0.084-0.086-0.214-0.129-0.39-0.129h-0.525v0.953zM34.931 26.063v1.118h-0.654v-3.174h1.238c0.238 0 0.448 0.044 0.628 0.131 0.182 0.087 0.321 0.212 0.419 0.373 0.097 0.16 0.146 0.342 0.146 0.547 0 0.311-0.107 0.557-0.321 0.737-0.212 0.179-0.507 0.268-0.883 0.268h-0.573zM34.931 25.533h0.584c0.173 0 0.305-0.041 0.395-0.122 0.092-0.081 0.137-0.198 0.137-0.349 0-0.156-0.046-0.281-0.137-0.377s-0.218-0.145-0.379-0.148h-0.6v0.996zM39.069 25.805h-1.256v0.85h1.474v0.525h-2.128v-3.174h2.124v0.53h-1.469v0.757h1.256v0.512zM42.104 24.536h-0.972v2.645h-0.654v-2.645h-0.959v-0.53h2.586v0.53zM44.389 25.805h-1.256v0.85h1.474v0.525h-2.128v-3.174h2.124v0.53h-1.469v0.757h1.256v0.512zM46.166 26.019h-0.521v1.162h-0.654v-3.174h1.179c0.375 0 0.664 0.084 0.868 0.251s0.305 0.403 0.305 0.709c0 0.217-0.047 0.397-0.142 0.543-0.093 0.144-0.235 0.259-0.425 0.344l0.687 1.297v0.030h-0.702l-0.595-1.162zM45.645 25.489h0.528c0.164 0 0.291-0.041 0.382-0.124 0.090-0.084 0.135-0.2 0.135-0.347 0-0.15-0.043-0.267-0.129-0.353-0.084-0.086-0.214-0.129-0.39-0.129h-0.525v0.953zM49.489 26.348c0-0.124-0.044-0.218-0.131-0.283-0.087-0.067-0.244-0.137-0.471-0.209-0.227-0.074-0.406-0.147-0.538-0.218-0.36-0.195-0.541-0.457-0.541-0.787 0-0.172 0.048-0.324 0.144-0.458 0.097-0.135 0.236-0.241 0.416-0.316 0.182-0.076 0.385-0.113 0.61-0.113 0.227 0 0.429 0.041 0.606 0.124 0.177 0.081 0.315 0.197 0.412 0.347 0.099 0.15 0.148 0.32 0.148 0.51h-0.654c0-0.145-0.046-0.258-0.137-0.338-0.092-0.081-0.22-0.122-0.386-0.122-0.16 0-0.284 0.034-0.373 0.102-0.089 0.067-0.133 0.156-0.133 0.266 0 0.103 0.052 0.19 0.155 0.259 0.105 0.070 0.258 0.135 0.46 0.196 0.372 0.112 0.643 0.251 0.813 0.416s0.255 0.372 0.255 0.619c0 0.275-0.104 0.491-0.312 0.648-0.208 0.156-0.488 0.233-0.839 0.233-0.244 0-0.467-0.044-0.667-0.133-0.201-0.090-0.354-0.213-0.46-0.368-0.105-0.156-0.157-0.336-0.157-0.541h0.656c0 0.35 0.209 0.525 0.628 0.525 0.156 0 0.277-0.031 0.364-0.094 0.087-0.064 0.131-0.153 0.131-0.266z"></path>
</symbol>
<symbol id="icon-logo5" viewBox="0 0 40 32">
<path d="M3.055 26.742c0.156 0.194 0.24 0.438 0.236 0.688 0.008 0.163-0.021 0.326-0.084 0.476s-0.159 0.285-0.281 0.393c-0.304 0.231-0.681 0.343-1.061 0.317h-1.865v-4.361h1.827c0.361-0.024 0.718 0.078 1.012 0.29 0.118 0.099 0.211 0.224 0.273 0.366s0.089 0.296 0.081 0.45c0.011 0.241-0.065 0.477-0.212 0.667-0.142 0.173-0.338 0.293-0.556 0.341 0.247 0.045 0.471 0.177 0.63 0.373zM0.868 26.084h0.781c0.177 0.013 0.354-0.038 0.496-0.145 0.059-0.053 0.104-0.12 0.133-0.193s0.041-0.153 0.034-0.233c0.006-0.079-0.006-0.158-0.035-0.232s-0.073-0.14-0.13-0.194c-0.147-0.11-0.329-0.162-0.511-0.147h-0.768v1.144zM2.222 27.756c0.063-0.055 0.112-0.123 0.144-0.2s0.046-0.16 0.041-0.243c0.005-0.084-0.010-0.168-0.042-0.246s-0.083-0.147-0.146-0.202c-0.153-0.114-0.341-0.17-0.53-0.158h-0.819v1.199h0.83c0.187 0.011 0.372-0.043 0.524-0.151z"></path>
<path d="M6.79 28.617l-1.016-1.704h-0.382v1.704h-0.874v-4.361h1.655c0.417-0.029 0.83 0.104 1.152 0.371 0.231 0.237 0.371 0.549 0.393 0.879s-0.073 0.659-0.27 0.925c-0.204 0.235-0.483 0.391-0.789 0.443l1.082 1.743h-0.951zM5.392 26.318h0.715c0.497 0 0.745-0.22 0.745-0.66 0.005-0.090-0.008-0.18-0.040-0.264s-0.080-0.161-0.143-0.226c-0.157-0.131-0.359-0.195-0.562-0.177h-0.724l0.008 1.327z"></path>
<path d="M11.568 27.739h-1.742l-0.308 0.878h-0.917l1.6-4.312h0.991l1.593 4.312h-0.917l-0.301-0.878zM11.335 27.079l-0.637-1.841-0.637 1.841h1.273z"></path>
<path d="M17.55 28.617h-0.868l-1.946-2.965v2.965h-0.866v-4.361h0.866l1.946 2.983v-2.983h0.868v4.361z"></path>
<path d="M22.502 27.573c-0.179 0.329-0.453 0.597-0.785 0.769-0.378 0.192-0.797 0.286-1.22 0.275h-1.545v-4.361h1.545c0.422-0.011 0.841 0.081 1.22 0.268 0.332 0.168 0.606 0.433 0.785 0.761 0.179 0.355 0.272 0.747 0.272 1.144s-0.093 0.789-0.272 1.144zM21.509 27.469c0.248-0.29 0.384-0.659 0.384-1.041s-0.136-0.751-0.384-1.041c-0.299-0.262-0.69-0.396-1.086-0.371h-0.603v2.823h0.603c0.397 0.025 0.787-0.108 1.086-0.371z"></path>
<path d="M12.111 0c0 0 11.201 4.246 10.963 10.39v10.392c0 0-11.193-4.248-10.959-10.392l-0.004-10.39z"></path>
<path d="M33.054 18.349c2.115-1.462 4.562-2.367 7.117-2.633v-3.253c-2.943 1.139-5.44 3.204-7.117 5.886z"></path>
<path d="M31.783 19.329c1.731-3.5 4.733-6.202 8.388-7.548v-9.374c0 0-15.952 6.048-15.614 14.797v14.795c0 0 0.711-0.27 1.829-0.778 0-0.473 0-0.95 0.051-1.43 0.33-4.062 2.253-7.826 5.347-10.464z"></path>
<path d="M30.266 24.825c0.084-1.026 0.271-2.041 0.558-3.029-1.926 2.279-3.093 5.106-3.335 8.085-0.023 0.281-0.036 0.562-0.042 0.852 0.906-0.437 1.96-0.982 3.068-1.623-0.283-1.409-0.366-2.851-0.248-4.284z"></path>
<path d="M30.9 24.878c-0.106 1.296-0.040 2.601 0.197 3.879 4.358-2.618 9.255-6.664 9.067-11.553v-0.426c-3.114 0.35-6.027 1.716-8.292 3.89-0.53 1.347-0.858 2.766-0.972 4.21z"></path>
</symbol>
<symbol id="icon-logo6" viewBox="0 0 62 32">
<path d="M31.124 14.854c-0.291-0.424-0.43-0.926-0.397-1.431v-2.075c0-0.636 0.132-1.119 0.395-1.45s0.715-0.495 1.356-0.494c0.602 0 1.029 0.141 1.282 0.422 0.276 0.359 0.41 0.798 0.379 1.241v0.488h-1.077v-0.494c0.004-0.162-0.007-0.323-0.031-0.483-0.016-0.109-0.070-0.211-0.154-0.287-0.111-0.082-0.25-0.122-0.39-0.112-0.148-0.010-0.294 0.032-0.41 0.118-0.094 0.085-0.156 0.196-0.178 0.317-0.031 0.169-0.045 0.341-0.042 0.513v2.518c-0.017 0.243 0.031 0.486 0.138 0.707 0.054 0.075 0.128 0.134 0.215 0.171s0.183 0.051 0.278 0.040c0.138 0.011 0.275-0.030 0.381-0.114 0.088-0.082 0.144-0.19 0.161-0.306 0.025-0.167 0.036-0.336 0.033-0.505v-0.511h1.077v0.466c0.030 0.462-0.101 0.92-0.372 1.304-0.247 0.308-0.669 0.462-1.289 0.462s-1.088-0.165-1.353-0.507z"></path>
<path d="M35.607 14.876c-0.272-0.323-0.408-0.794-0.408-1.416v-2.182c0-0.616 0.136-1.083 0.408-1.399s0.727-0.474 1.364-0.473c0.633 0 1.086 0.158 1.358 0.473 0.272 0.317 0.41 0.783 0.41 1.399v2.182c0 0.616-0.138 1.089-0.415 1.414s-0.727 0.488-1.353 0.488c-0.626 0-1.090-0.165-1.364-0.485zM37.474 14.352c0.097-0.202 0.142-0.424 0.129-0.646v-2.672c0.013-0.218-0.031-0.435-0.127-0.633-0.055-0.076-0.131-0.137-0.22-0.174s-0.187-0.050-0.284-0.037c-0.097-0.013-0.195 0-0.285 0.037s-0.166 0.097-0.221 0.174c-0.098 0.198-0.142 0.415-0.129 0.633v2.685c-0.014 0.222 0.031 0.444 0.129 0.646 0.063 0.068 0.14 0.123 0.227 0.16s0.181 0.057 0.277 0.057c0.096 0 0.19-0.019 0.277-0.057s0.164-0.092 0.227-0.16v-0.013z"></path>
<path d="M40.035 9.468h1.159l0.872 4.027 0.892-4.027h1.128l0.114 5.812h-0.834l-0.089-4.040-0.861 4.040h-0.669l-0.892-4.054-0.082 4.054h-0.843l0.105-5.812z"></path>
<path d="M45.5 9.468h1.806c1.040 0 1.561 0.55 1.561 1.65 0 1.054-0.548 1.58-1.643 1.579h-0.615v2.583h-1.115l0.007-5.812zM47.042 11.952c0.11 0.013 0.222 0.004 0.328-0.028s0.203-0.085 0.285-0.156c0.128-0.196 0.184-0.427 0.16-0.656 0.006-0.177-0.012-0.355-0.053-0.528-0.016-0.058-0.044-0.112-0.082-0.159s-0.086-0.087-0.141-0.117c-0.155-0.070-0.326-0.102-0.497-0.093h-0.432v1.737h0.432z"></path>
<path d="M50.474 9.468h1.197l1.228 5.812h-1.039l-0.243-1.34h-1.068l-0.25 1.34h-1.055l1.228-5.812zM51.497 13.267l-0.417-2.44-0.417 2.44h0.834z"></path>
<path d="M53.892 9.468h0.78l1.494 3.316v-3.316h0.925v5.812h-0.742l-1.503-3.461v3.461h-0.957l0.002-5.812z"></path>
<path d="M59.258 13.064l-1.242-3.588h1.046l0.758 2.305 0.711-2.305h1.023l-1.226 3.588v2.216h-1.070v-2.216z"></path>
<path d="M32.845 17.822v0.304h-0.91v2.362h-0.381v-2.362h-0.914v-0.304h2.205z"></path>
<path d="M35.697 20.488h-0.294c-0.030 0.002-0.059-0.007-0.083-0.025-0.022-0.015-0.039-0.037-0.049-0.061l-0.263-0.633h-1.262l-0.263 0.633c-0.007 0.026-0.021 0.051-0.040 0.072-0.023 0.018-0.053 0.027-0.083 0.025h-0.294l1.115-2.666h0.388l1.128 2.655zM33.85 19.498h1.052l-0.446-1.085c-0.033-0.082-0.060-0.166-0.083-0.251-0.016 0.051-0.029 0.099-0.042 0.141l-0.040 0.112-0.441 1.083z"></path>
<path d="M37.618 20.226c0.070 0.003 0.14 0.003 0.21 0 0.060-0.006 0.12-0.016 0.178-0.032 0.055-0.013 0.108-0.029 0.16-0.049 0.049-0.019 0.098-0.042 0.149-0.065v-0.599h-0.446c-0.011 0.001-0.022-0.001-0.032-0.005s-0.020-0.009-0.028-0.017c-0.007-0.006-0.013-0.014-0.017-0.022s-0.006-0.018-0.005-0.027v-0.205h0.865v1.022c-0.071 0.048-0.145 0.090-0.223 0.127-0.080 0.037-0.162 0.068-0.247 0.091-0.091 0.025-0.184 0.044-0.279 0.055-0.108 0.011-0.217 0.017-0.325 0.017-0.192 0.002-0.383-0.032-0.562-0.099-0.167-0.064-0.319-0.158-0.446-0.279-0.124-0.122-0.222-0.265-0.288-0.422-0.070-0.177-0.105-0.364-0.103-0.553-0.002-0.19 0.032-0.379 0.1-0.557 0.064-0.158 0.162-0.302 0.288-0.422 0.127-0.12 0.279-0.214 0.446-0.277 0.191-0.068 0.394-0.102 0.597-0.099 0.104-0 0.207 0.008 0.31 0.023 0.091 0.014 0.179 0.037 0.265 0.068 0.078 0.028 0.153 0.063 0.223 0.106 0.068 0.042 0.133 0.088 0.194 0.139l-0.107 0.165c-0.008 0.015-0.021 0.028-0.036 0.037s-0.033 0.014-0.051 0.014c-0.025-0.001-0.049-0.008-0.069-0.021-0.033-0.017-0.069-0.038-0.109-0.063-0.047-0.028-0.097-0.052-0.149-0.072-0.066-0.025-0.135-0.045-0.205-0.059-0.093-0.016-0.188-0.024-0.283-0.023-0.147-0.002-0.293 0.023-0.43 0.074-0.124 0.047-0.236 0.119-0.328 0.211-0.092 0.096-0.163 0.209-0.207 0.331-0.1 0.289-0.1 0.6 0 0.889 0.049 0.125 0.125 0.24 0.223 0.336 0.091 0.091 0.202 0.163 0.325 0.211 0.142 0.046 0.292 0.064 0.441 0.053z"></path>
<path d="M41.172 20.184h1.217v0.304h-1.59v-2.666h0.381l-0.009 2.362z"></path>
<path d="M43.656 20.488h-0.381v-2.666h0.381v2.666z"></path>
<path d="M45.074 17.834c0.023 0.012 0.042 0.029 0.058 0.049l1.63 2.009c-0.002-0.032-0.002-0.063 0-0.095 0-0.030 0-0.059 0-0.087v-1.9h0.332v2.676h-0.192c-0.028 0.002-0.057-0.003-0.083-0.015-0.023-0.013-0.044-0.030-0.060-0.051l-1.628-2.007c0 0.032 0 0.061 0 0.091s0 0.057 0 0.082v1.9h-0.319v-2.666h0.198c0.022 0 0.043 0.004 0.062 0.013z"></path>
<path d="M49.901 17.822v0.293h-1.351v0.88h1.095v0.283h-1.095v0.91h1.351v0.293h-1.743v-2.659h1.743z"></path>
<path d="M9.95 1.359l16.929 4.551v15.946l-16.929-4.548v-15.948zM8.864 0v18.082l19.098 5.135v-18.080l-19.098-5.137z"></path>
<path d="M19.1 31.611l-19.1-5.139v-18.080l19.1 5.137v18.082z"></path>
<path d="M9.181 1.155l16.708 4.493-7.105 6.729-16.71-4.496 7.108-6.726zM8.864 0l-8.864 8.392 19.1 5.137 8.862-8.392-19.098-5.137z"></path>
<path d="M20.175 30.593l7.788-7.374-7.788-2.096v9.47z"></path>
</symbol>
<symbol id="icon-smartphone" viewBox="0 0 20 32">
<path d="M17 0h-14c-1.654 0-3 1.346-3 3v26c0 1.654 1.346 3 3 3h14c1.654 0 3-1.346 3-3v-26c0-1.654-1.346-3-3-3zM3 2h14c0.552 0 1 0.448 1 1v21h-16v-21c0-0.552 0.448-1 1-1zM17 30h-14c-0.552 0-1-0.448-1-1v-3h16v3c0 0.552-0.448 1-1 1z"></path>
<path d="M4.707 27.478c0.391 0.365 0.391 0.956 0 1.321s-1.024 0.365-1.414 0c-0.391-0.365-0.391-0.956 0-1.321s1.024-0.365 1.414 0z"></path>
</symbol>
<symbol id="icon-twitter" viewBox="0 0 36 32">
<path d="M35.556 4.976c-1.322 0.58-2.731 0.964-4.2 1.151 1.511-0.902 2.665-2.32 3.207-4.029-1.409 0.84-2.964 1.433-4.622 1.764-1.338-1.424-3.244-2.307-5.324-2.307-4.035 0-7.284 3.276-7.284 7.291 0 0.578 0.049 1.133 0.169 1.662-6.060-0.296-11.422-3.2-15.024-7.624-0.629 1.091-0.998 2.34-0.998 3.684 0 2.524 1.3 4.762 3.238 6.058-1.171-0.022-2.32-0.362-3.293-0.898 0 0.022 0 0.051 0 0.080 0 3.542 2.527 6.484 5.84 7.162-0.593 0.162-1.24 0.24-1.911 0.24-0.467 0-0.938-0.026-1.38-0.124 0.944 2.887 3.624 5.009 6.811 5.078-2.48 1.94-5.629 3.109-9.038 3.109-0.598 0-1.171-0.026-1.744-0.1 3.229 2.082 7.056 3.271 11.182 3.271 13.413 0 20.747-11.111 20.747-20.742 0-0.322-0.011-0.633-0.027-0.942 1.447-1.027 2.662-2.309 3.653-3.784z"></path>
</symbol>
<symbol id="icon-close" viewBox="0 0 32 32">
<path d="M32 3.223l-3.223-3.223-12.777 12.777-12.777-12.777-3.223 3.223 12.777 12.777-12.777 12.777 3.223 3.223 12.777-12.777 12.777 12.777 3.223-3.223-12.777-12.777 12.777-12.777z"></path>
</symbol>
<symbol id="icon-email-black" viewBox="0 0 33 32">
<path d="M25.043 4.174h-16.696c-1.148 0-2.076 0.939-2.076 2.087l-0.011 12.522c0 1.148 0.939 2.087 2.087 2.087h16.696c1.148 0 2.087-0.939 2.087-2.087v-12.522c0-1.148-0.939-2.087-2.087-2.087zM24.626 8.609l-7.377 4.611c-0.157 0.098-0.349 0.157-0.554 0.157s-0.396-0.058-0.558-0.159l0.004 0.003-7.377-4.611c-0.263-0.157-0.436-0.44-0.436-0.763 0-0.489 0.397-0.886 0.886-0.886 0.182 0 0.351 0.055 0.492 0.149l-0.003-0.002 6.991 4.371 6.991-4.373c0.138-0.092 0.307-0.147 0.489-0.147 0.489 0 0.886 0.397 0.886 0.886 0 0.323-0.173 0.606-0.432 0.761l-0.004 0.002z"></path>
</symbol>
<symbol id="icon-person-black" viewBox="0 0 32 32">
<path d="M16 16c2.946 0 5.333-2.388 5.333-5.333s-2.388-5.333-5.333-5.333v0c-2.946 0-5.333 2.388-5.333 5.333s2.388 5.333 5.333 5.333v0zM16 18.667c-3.561 0-10.667 1.787-10.667 5.333v1.333c0 0.732 0.599 1.333 1.333 1.333h18.667c0.732 0 1.333-0.601 1.333-1.333v-1.333c0-3.547-7.108-5.333-10.667-5.333z"></path>
</symbol>
<symbol id="icon-phone-black" viewBox="0 0 32 32">
<path d="M24.882 19.774l-3.268-0.373c-0.090-0.011-0.194-0.018-0.3-0.018-0.707 0-1.347 0.287-1.81 0.75l-2.368 2.368c-3.669-1.894-6.585-4.81-8.427-8.372l-0.051-0.108 2.382-2.377c0.463-0.463 0.75-1.103 0.75-1.81 0-0.106-0.006-0.21-0.019-0.312l0.001 0.012-0.373-3.243c-0.155-1.287-1.24-2.276-2.557-2.276-0.001 0-0.002 0-0.003 0h-2.226c-1.454 0-2.663 1.209-2.574 2.661 0.683 10.987 9.47 19.762 20.444 20.444 1.452 0.089 2.663-1.12 2.663-2.574v-2.226c0-0.004 0-0.008 0-0.012 0-1.308-0.985-2.386-2.253-2.532l-0.012-0.001z"></path>
</symbol>
<symbol id="icon-send" viewBox="0 0 32 32">
<path d="M32 0l-32 18 10.227 3.787 15.773-14.787-11.997 16.187 0.009 0.003-0.012-0.003v8.813l5.735-6.691 7.267 2.691 4.999-28z"></path>
</symbol>
<symbol id="icon-menu" viewBox="0 0 48 32">
<path d="M0 5.334v-5.334h48v5.334h-48zM0 18.666h48v-5.332h-48v5.332zM0 32h48v-5.334h-48v5.334z"></path>
</symbol>
<symbol id="icon-cross" viewBox="0 0 32 32">
<path d="M31.439 3.166l-3.166-3.166-12.554 12.552-12.552-12.552-3.166 3.166 12.552 12.552-12.552 12.554 3.166 3.166 12.552-12.554 12.554 12.554 3.166-3.166-12.554-12.554 12.554-12.552z"></path>
</symbol>
</defs>
</svg>
